<?xml version="1.0" encoding="UTF-8"?>
<!DOCTYPE svg PUBLIC "-//W3C//DTD SVG 1.1//EN" "http://www.w3.org/Graphics/SVG/1.1/DTD/svg11.dtd">
<!-- Creator: CorelDRAW -->
<svg xmlns="http://www.w3.org/2000/svg" xml:space="preserve" width="42mm" height="42mm" style="shape-rendering:geometricPrecision; text-rendering:geometricPrecision; image-rendering:optimizeQuality; fill-rule:evenodd; clip-rule:evenodd"
viewBox="0 0 42 42">
 <defs>
  <style type="text/css">
   <![CDATA[
    .str1 {stroke:#1F1A17;stroke-width:0.0762;stroke-linecap:square;stroke-linejoin:bevel}
    .str0 {stroke:#4C4840;stroke-width:0.0762}
    .str2 {stroke:#1F1A17;stroke-width:0.1764}
    .fil3 {fill:none}
    .fil2 {fill:#DA251D}
    .fil0 {fill:#EF9A48}
    .fil1 {fill:#F8C300}
    .fil4 {fill:#1F1A17;fill-rule:nonzero}
   ]]>
  </style>
 </defs>
 <g id="Ebene_x0020_1">
  <metadata id="CorelCorpID_0Corel-Layer"/>
  <path class="fil0" d="M20.9996 0c11.5964,0 21.0004,9.404 21.0004,21 0,11.596 -9.404,21 -21.0004,21 -11.5957,0 -20.9996,-9.404 -20.9996,-21 0,-11.596 9.4039,-21 20.9996,-21z"/>
  <polygon class="fil1 str0" points="20.9996,2.0006 21.9787,2.0255 22.9441,2.0989 23.895,2.2199 24.8303,2.3868 25.7486,2.5989 26.6495,2.8548 27.5315,3.1533 28.3936,3.4932 29.2346,3.8735 30.0536,4.293 30.8492,4.7506 31.6202,5.2448 32.3653,5.7748 33.0835,6.3392 33.7735,6.9368 34.4338,7.5661 35.0632,8.2265 35.6608,8.9163 36.2251,9.6346 36.7552,10.3797 37.2494,11.1506 37.707,11.9462 38.1265,12.7652 38.5069,13.6061 38.8467,14.4682 39.1452,15.3502 39.4011,16.2511 39.6132,17.1694 39.7801,18.1047 39.9011,19.0555 39.9745,20.0209 39.9994,21 39.9745,21.9791 39.9011,22.9445 39.7801,23.8953 39.6132,24.8306 39.4011,25.7489 39.1452,26.6498 38.8467,27.5318 38.5069,28.3939 38.1265,29.2348 37.707,30.0538 37.2494,30.8494 36.7552,31.6203 36.2251,32.3654 35.6608,33.0837 35.0632,33.7735 34.4338,34.4339 33.7735,35.0632 33.0835,35.6608 32.3653,36.2252 31.6202,36.7552 30.8492,37.2494 30.0536,37.707 29.2346,38.1265 28.3936,38.5068 27.5315,38.8467 26.6495,39.1452 25.7486,39.4011 24.8303,39.6132 23.895,39.7801 22.9441,39.9011 21.9787,39.9745 20.9996,39.9994 20.0206,39.9745 19.0552,39.9011 18.1045,39.7801 17.1692,39.6132 16.2509,39.4011 15.3501,39.1452 14.4681,38.8467 13.606,38.5069 12.7651,38.1265 11.9461,37.707 11.1505,37.2494 10.3795,36.7552 9.6344,36.2252 8.9163,35.6609 8.2265,35.0633 7.5661,34.4339 6.9367,33.7735 6.3391,33.0837 5.7748,32.3655 5.2448,31.6204 4.7506,30.8494 4.293,30.0538 3.8735,29.2348 3.4931,28.3939 3.1533,27.5318 2.8548,26.6498 2.5989,25.7489 2.3868,24.8306 2.2199,23.8953 2.0989,22.9445 2.0255,21.9791 2.0006,21 2.0255,20.0209 2.0989,19.0555 2.2199,18.1047 2.3868,17.1694 2.5989,16.2511 2.8548,15.3502 3.1533,14.4682 3.4931,13.6061 3.8735,12.7652 4.293,11.9462 4.7506,11.1506 5.2448,10.3796 5.7748,9.6345 6.3391,8.9163 6.9367,8.2265 7.5661,7.5661 8.2265,6.9367 8.9163,6.3391 9.6344,5.7748 10.3795,5.2448 11.1505,4.7506 11.9461,4.293 12.7651,3.8735 13.606,3.4931 14.4681,3.1533 15.3501,2.8548 16.2509,2.5989 17.1692,2.3868 18.1045,2.2199 19.0552,2.0989 20.0206,2.0255 "/>
  <path id="svg_1" class="fil2 str1" d="M9.9101 7.1013c9.7021,0.706 12.9112,0.7432 22.0535,0.1115 0.2379,0.5365 0.2886,1.2339 0.198,1.746 0.1973,0.5122 0.5412,1.063 0.7897,1.5942 0.337,1.0304 0.836,1.8542 1.0647,2.8689 0.2286,1.0146 0.4105,2.0281 0.5609,3.0538 0.1503,1.0257 0.2694,2.0636 0.372,3.1274 -0.2613,4.4032 0.4851,7.5806 0.2985,11.984 -4.1048,1.5979 -9.105,1.5985 -13.0605,0.4094 -1.1194,-5.1246 -0.3358,-6.8451 -1.2314,-11.7896 -0.7462,4.868 0.112,6.5465 -0.7463,11.7867 -4.03,0.929 -8.2094,1.3771 -12.7247,0.3737 -0.4851,-4.2352 -0.4851,-7.3905 -0.7837,-12.2228 0.3172,-2.1739 0.7165,-4.5941 1.238,-6.891 0.2608,-1.1485 0.648,-2.2343 0.9749,-3.275 0.1634,-0.5204 0.4956,-0.7017 0.6776,-1.1778 0.0538,-0.4761 0.1492,-1.247 0.3188,-1.6994l0 0z"/>
  <path id="svg_2" class="fil3 str2" d="M17.8396 12.5677c-0.3471,-0.0811 -0.8876,-0.0532 -1.0414,-0.2433 -0.1538,-0.1903 0.2768,-0.6596 0.5192,-0.5341 0.2425,0.1256 0.346,0.5137 0.5223,0.7774l-0.0001 0zm2.4907 2.2998c-0.3472,-0.081 -0.8877,-0.053 -1.0415,-0.2432 -0.1537,-0.1902 0.2769,-0.6595 0.5193,-0.5339 0.2425,0.1253 0.3459,0.5135 0.5222,0.7771l0 0zm2.9173 -1.7265c0.3572,1.1516 -0.9488,1.5674 -0.9434,2.4949 0.0053,0.9276 -1.045,1.6312 -0.6558,2.6227"/>
  <path class="fil4" d="M29.5373 11.6041c-0.0713,0.0056 -0.1343,-0.0147 -0.1892,-0.061 -0.0515,-0.0471 -0.0799,-0.1042 -0.0854,-0.1735 -0.0056,-0.0712 0.0134,-0.1342 0.0569,-0.1887 0.0472,-0.0516 0.1063,-0.0801 0.1776,-0.0857 0.0692,-0.0055 0.1301,0.0136 0.1848,0.0571 0.0542,0.0469 0.084,0.1061 0.0896,0.1772 0.0055,0.0693 -0.0149,0.1303 -0.0611,0.1851 -0.047,0.0543 -0.1041,0.084 -0.1732,0.0895zm-1.6069 -0.8977l-0.1202 -1.5268 0.5089 -0.04 0.0801 1.0178 2.0357 -0.1602 -0.0801 -1.0179 0.509 -0.04 0.1201 1.5268 -3.0535 0.2403zm0.3487 -2.0758c-0.1432,0.0113 -0.2678,-0.028 -0.3733,-0.1188 -0.1063,-0.0926 -0.1646,-0.2096 -0.1757,-0.35l3.0536 -0.2404c0.0112,0.1432 -0.0295,0.268 -0.1229,0.3736 -0.0927,0.1063 -0.2082,0.1646 -0.346,0.1754l-2.0357 0.1602z"/>
  <path class="fil4" d="M23.6598 10.98l-0.0935 -1.5286 3.0573 -0.187 0.0935 1.5286 -0.5096 0.0312 -0.0623 -1.0191 -2.0382 0.1247 0.0623 1.0191 -0.5095 0.0311zm0.3849 -2.0693c-0.1434,0.0087 -0.2673,-0.0328 -0.3712,-0.1253 -0.1046,-0.0945 -0.161,-0.2125 -0.1696,-0.3531l3.0573 -0.187c0.0088,0.1433 -0.0341,0.2674 -0.1293,0.3714 -0.0945,0.1046 -0.2111,0.1609 -0.349,0.1693l-2.0382 0.1247z"/>
  <path class="fil4" d="M19.5041 10.9022l-0.0223 -2.5524 0.5105 -0.0044 0.0178 2.0419 2.5524 -0.0223c0.0013,0.1436 -0.0481,0.2652 -0.1486,0.3641 -0.0998,0.0996 -0.2192,0.1496 -0.3574,0.1508l-2.5524 0.0223z"/>
  <path class="fil4" d="M14.9215 10.679c0.0196,-0.2805 0.2641,-0.4933 0.5449,-0.4737 0.6789,0.0475 1.3579,0.095 2.037,0.1425l0.0356 -0.5093 -2.5463 -0.1781 0.1069 -1.5277 3.0555 0.2136c-0.0196,0.2806 -0.2642,0.4933 -0.5449,0.4737 -0.679,-0.0475 -1.3581,-0.095 -2.037,-0.1425l-0.0356 0.5093 2.5463 0.1781 -0.1069 1.5277 -3.0555 -0.2136z"/>
  <path class="fil4" d="M12.1868 10.5621l0.178 -2.0343 -0.7628 -0.0667c-0.1431,-0.0125 -0.2595,-0.0719 -0.3486,-0.1788 -0.0895,-0.1089 -0.1278,-0.2339 -0.1155,-0.3742l3.0514 0.2669c-0.0125,0.1431 -0.0733,0.2594 -0.1829,0.3482 -0.1089,0.0895 -0.2325,0.1279 -0.3702,0.1159l-0.7629 -0.0668 -0.1779 2.0343 -0.5086 -0.0445z"/>
  <path class="fil4" d="M25.5238 31.7665l0.2495 -2.0315 0.4064 0.05 -0.2494 2.0314 -0.4065 -0.0499zm-1.9317 -1.062l0.1496 -1.219 0.4065 0.05 -0.0998 0.8125 1.6251 0.1996c-0.014,0.1143 -0.066,0.2058 -0.1562,0.2739 -0.0899,0.0688 -0.1899,0.096 -0.2999,0.0826l-1.6253 -0.1996z"/>
  <path class="fil4" d="M27.2646 31.8758l0 -1.2281 2.0468 0 0 -0.4094 -1.6374 0c-0.113,0 -0.2102,-0.0392 -0.291,-0.1184 -0.0791,-0.0786 -0.1184,-0.1757 -0.1184,-0.2909l2.4562 0 0 1.2281 -2.0468 0 0 0.4093 1.6374 0c0.1108,0 0.2069,0.0404 0.2877,0.1218 0.0813,0.0786 0.1217,0.1746 0.1217,0.2876l-2.4562 0z"/>
  <path class="fil4" d="M31.4811 31.7797c-0.114,0.0161 -0.2158,-0.0093 -0.3046,-0.0767 -0.0896,-0.069 -0.142,-0.1598 -0.1578,-0.2716l-0.1139 -0.8108 0.4054 -0.057 0.0855 0.6081c0.008,0.0568 0.0337,0.1028 0.0772,0.1379 0.0459,0.0322 0.0971,0.0442 0.1538,0.0363l1.2162 -0.1709c0.0551,-0.0078 0.0996,-0.0333 0.1347,-0.0768 0.0343,-0.0462 0.0475,-0.0976 0.0395,-0.1543l-0.0854 -0.6081 0.4054 -0.057 0.1139 0.8108c0.016,0.114 -0.0104,0.2159 -0.08,0.305 -0.069,0.0896 -0.1587,0.1419 -0.2684,0.1573l-1.6215 0.2278zm-0.6333 -1.5645c-0.0157,-0.1118 0.0099,-0.2125 0.0772,-0.3012 0.0687,-0.0919 0.1593,-0.1453 0.2713,-0.1611l1.6214 -0.2278c0.1119,-0.0158 0.2127,0.0109 0.3019,0.0804 0.0917,0.0687 0.1451,0.1581 0.1605,0.2678l-2.4323 0.3419z"/>
 </g>
</svg>
